<svg xmlns="http://www.w3.org/2000/svg" viewBox="0 0 800 1150" width="800" height="1150">
  <defs>
    <linearGradient id="bgGrad" x1="0" y1="0" x2="0" y2="1">
      <stop offset="0%" stop-color="#060f1e"/>
      <stop offset="60%" stop-color="#0a1a35"/>
      <stop offset="100%" stop-color="#071528"/>
    </linearGradient>
    <linearGradient id="headerGrad" x1="0" y1="0" x2="0" y2="1">
      <stop offset="0%" stop-color="#102040"/>
      <stop offset="100%" stop-color="#071528"/>
    </linearGradient>
    <linearGradient id="goldGrad" x1="0" y1="0" x2="1" y2="0">
      <stop offset="0%" stop-color="#7a5800"/>
      <stop offset="30%" stop-color="#d4a017"/>
      <stop offset="50%" stop-color="#FFD700"/>
      <stop offset="70%" stop-color="#d4a017"/>
      <stop offset="100%" stop-color="#7a5800"/>
    </linearGradient>
    <linearGradient id="footerGrad" x1="0" y1="0" x2="1" y2="0">
      <stop offset="0%" stop-color="#7a5800"/>
      <stop offset="25%" stop-color="#C9A227"/>
      <stop offset="50%" stop-color="#FFD700"/>
      <stop offset="75%" stop-color="#C9A227"/>
      <stop offset="100%" stop-color="#7a5800"/>
    </linearGradient>
    <linearGradient id="card1Grad" x1="0" y1="0" x2="1" y2="0">
      <stop offset="0%" stop-color="#0e2244"/>
      <stop offset="100%" stop-color="#091830"/>
    </linearGradient>
    <linearGradient id="card2Grad" x1="0" y1="0" x2="1" y2="0">
      <stop offset="0%" stop-color="#122650"/>
      <stop offset="100%" stop-color="#0b1e3c"/>
    </linearGradient>
    <filter id="glow" x="-20%" y="-20%" width="140%" height="140%">
      <feGaussianBlur stdDeviation="5" result="blur"/>
      <feMerge>
        <feMergeNode in="blur"/>
        <feMergeNode in="SourceGraphic"/>
      </feMerge>
    </filter>
    <filter id="softGlow" x="-10%" y="-10%" width="120%" height="120%">
      <feGaussianBlur stdDeviation="3" result="blur"/>
      <feMerge>
        <feMergeNode in="blur"/>
        <feMergeNode in="SourceGraphic"/>
      </feMerge>
    </filter>
    <filter id="shadow">
      <feDropShadow dx="0" dy="4" stdDeviation="6" flood-color="#000000" flood-opacity="0.6"/>
    </filter>
    <filter id="badgeShadow">
      <feDropShadow dx="3" dy="3" stdDeviation="8" flood-color="#C9A227" flood-opacity="0.5"/>
    </filter>
  </defs>

  <!-- ===== BACKGROUND ===== -->
  <rect width="800" height="1150" fill="url(#bgGrad)"/>

  <!-- Background radial glow in center -->
  <radialGradient id="centerGlow" cx="50%" cy="45%" r="50%">
    <stop offset="0%" stop-color="#1a3a6e" stop-opacity="0.3"/>
    <stop offset="100%" stop-color="#060f1e" stop-opacity="0"/>
  </radialGradient>
  <rect width="800" height="1150" fill="url(#centerGlow)"/>

  <!-- Decorative watermark circles -->
  <circle cx="400" cy="580" r="380" fill="none" stroke="#C9A227" stroke-width="0.5" opacity="0.06"/>
  <circle cx="400" cy="580" r="300" fill="none" stroke="#C9A227" stroke-width="0.5" opacity="0.07"/>
  <circle cx="400" cy="580" r="220" fill="none" stroke="#C9A227" stroke-width="0.5" opacity="0.05"/>

  <!-- Top decorative border stripes -->
  <rect x="0" y="0" width="800" height="7" fill="url(#goldGrad)"/>
  <rect x="0" y="9" width="800" height="2.5" fill="#C9A227" opacity="0.45"/>
  <rect x="0" y="13" width="800" height="1" fill="#C9A227" opacity="0.2"/>

  <!-- ===== HEADER SECTION ===== -->
  <rect x="0" y="16" width="800" height="185" fill="url(#headerGrad)"/>

  <!-- Header side glow accents -->
  <rect x="0" y="16" width="4" height="185" fill="url(#goldGrad)"/>
  <rect x="796" y="16" width="4" height="185" fill="url(#goldGrad)"/>

  <!-- Left decorative: Scales of Justice -->
  <g transform="translate(28, 28)" opacity="0.3">
    <rect x="38" y="0" width="4" height="90" fill="#C9A227"/>
    <rect x="5" y="22" width="70" height="4" rx="2" fill="#C9A227"/>
    <line x1="8" y1="26" x2="8" y2="58" stroke="#C9A227" stroke-width="2"/>
    <path d="M -8,58 C -8,68 24,68 24,58 Z" fill="#C9A227" opacity="0.6"/>
    <line x1="-8" y1="58" x2="24" y2="58" stroke="#C9A227" stroke-width="2"/>
    <line x1="72" y1="26" x2="72" y2="58" stroke="#C9A227" stroke-width="2"/>
    <path d="M 56,58 C 56,68 88,68 88,58 Z" fill="#C9A227" opacity="0.6"/>
    <line x1="56" y1="58" x2="88" y2="58" stroke="#C9A227" stroke-width="2"/>
    <rect x="28" y="90" width="24" height="5" rx="2.5" fill="#C9A227"/>
    <polygon points="40,0 43,8 52,8 45,13 47,22 40,17 33,22 35,13 28,8 37,8" fill="#C9A227"/>
  </g>

  <!-- Right decorative: Gavel -->
  <g transform="translate(660, 22)" opacity="0.3">
    <rect x="28" y="8" width="55" height="26" rx="7" fill="#C9A227" transform="rotate(-38, 55, 21)"/>
    <rect x="18" y="10" width="18" height="12" rx="3" fill="#a07800" transform="rotate(-38, 27, 16)"/>
    <rect x="5" y="38" width="10" height="62" rx="5" fill="#C9A227" transform="rotate(-38, 10, 69)"/>
  </g>

  <!-- Main Title -->
  <text x="400" y="88"
        text-anchor="middle"
        font-family="Noto Nastaliq Urdu, Jameel Noori Nastaleeq, Traditional Arabic, Arial Unicode MS, serif"
        font-size="54"
        font-weight="bold"
        fill="url(#goldGrad)"
        filter="url(#glow)"
        direction="rtl"
        unicode-bidi="bidi-override">اعوان لاء ایسوسی ایٹس</text>

  <!-- Subtitle Banner -->
  <rect x="165" y="105" width="470" height="56" rx="12" fill="#B8860B" filter="url(#shadow)"/>
  <rect x="167" y="107" width="466" height="52" rx="11" fill="#C9A227"/>
  <rect x="169" y="109" width="462" height="24" rx="10" fill="#FFD700" opacity="0.25"/>
  <text x="400" y="142"
        text-anchor="middle"
        font-family="Noto Nastaliq Urdu, Jameel Noori Nastaleeq, Arial"
        font-size="28"
        font-weight="bold"
        fill="#071528"
        direction="rtl"
        unicode-bidi="bidi-override">پبلک سلوشنز ڈیسک</text>

  <!-- Header bottom divider -->
  <line x1="40" y1="202" x2="760" y2="202" stroke="#C9A227" stroke-width="1.5" opacity="0.5"/>
  <line x1="40" y1="204.5" x2="760" y2="204.5" stroke="#C9A227" stroke-width="0.5" opacity="0.25"/>

  <!-- ===== DESCRIPTION ===== -->
  <text x="400" y="232"
        text-anchor="middle"
        font-family="Noto Nastaliq Urdu, Jameel Noori Nastaleeq, Arial"
        font-size="15"
        fill="#b8cfe8"
        direction="rtl"
        unicode-bidi="bidi-override">ایک بااعتماد، تجربہ کار، جزوقانونی، عوامی، بینکنگ، ادارہ جاتی اور اوورسیز پاکستانیوں کے</text>
  <text x="400" y="254"
        text-anchor="middle"
        font-family="Noto Nastaliq Urdu, Jameel Noori Nastaleeq, Arial"
        font-size="15"
        fill="#b8cfe8"
        direction="rtl"
        unicode-bidi="bidi-override">معاملات میں پروفیشنل رہنمائی فراہم کرتا ہے۔</text>

  <!-- Services section heading -->
  <rect x="270" y="270" width="260" height="38" rx="19" fill="none" stroke="#C9A227" stroke-width="2"/>
  <rect x="272" y="272" width="256" height="34" rx="17" fill="#C9A227" opacity="0.12"/>
  <text x="400" y="296"
        text-anchor="middle"
        font-family="Noto Nastaliq Urdu, Jameel Noori Nastaleeq, Arial"
        font-size="20"
        font-weight="bold"
        fill="#FFD700"
        filter="url(#softGlow)"
        direction="rtl"
        unicode-bidi="bidi-override">ہماری بنیادی خدمات</text>

  <!-- ===== SERVICE CARD 1 ===== -->
  <g transform="translate(40, 322)">
    <rect x="0" y="0" width="720" height="100" rx="10" fill="url(#card1Grad)" stroke="#C9A227" stroke-width="0.8" opacity="0.95"/>
    <rect x="0" y="0" width="7" height="100" rx="5" fill="url(#goldGrad)"/>
    <!-- Icon circle -->
    <circle cx="42" cy="33" r="20" fill="none" stroke="#C9A227" stroke-width="1.5" opacity="0.6"/>
    <circle cx="42" cy="33" r="16" fill="#C9A227" opacity="0.12"/>
    <!-- Scales icon -->
    <line x1="34" y1="33" x2="50" y2="33" stroke="#C9A227" stroke-width="1.5"/>
    <line x1="42" y1="25" x2="42" y2="42" stroke="#C9A227" stroke-width="1.5"/>
    <path d="M 31,33 C 31,38 37,38 37,33 Z" fill="#C9A227" opacity="0.7"/>
    <path d="M 45,33 C 45,38 51,38 51,33 Z" fill="#C9A227" opacity="0.7"/>
    <!-- Title -->
    <text x="700" y="33"
          text-anchor="end"
          font-family="Noto Nastaliq Urdu, Jameel Noori Nastaleeq, Arial"
          font-size="20"
          font-weight="bold"
          fill="#FFD700"
          direction="rtl"
          unicode-bidi="bidi-override">قانونی رہنمائی اور معاونت</text>
    <line x1="75" y1="46" x2="698" y2="46" stroke="#C9A227" stroke-width="0.8" opacity="0.4"/>
    <!-- Description -->
    <text x="700" y="72"
          text-anchor="end"
          font-family="Noto Nastaliq Urdu, Jameel Noori Nastaleeq, Arial"
          font-size="14"
          fill="#9ab8d8"
          direction="rtl"
          unicode-bidi="bidi-override">مختلف قانونی معاملات میں ذمہ دارانہ اور پروفیشنل رہنمائی فراہم کرنا۔</text>
  </g>

  <!-- ===== SERVICE CARD 2 ===== -->
  <g transform="translate(40, 434)">
    <rect x="0" y="0" width="720" height="100" rx="10" fill="url(#card2Grad)" stroke="#C9A227" stroke-width="0.8" opacity="0.95"/>
    <rect x="0" y="0" width="7" height="100" rx="5" fill="url(#goldGrad)"/>
    <!-- Building icon -->
    <circle cx="42" cy="33" r="20" fill="none" stroke="#C9A227" stroke-width="1.5" opacity="0.6"/>
    <circle cx="42" cy="33" r="16" fill="#C9A227" opacity="0.12"/>
    <rect x="34" y="28" width="16" height="14" fill="none" stroke="#C9A227" stroke-width="1.2"/>
    <line x1="31" y1="28" x2="53" y2="28" stroke="#C9A227" stroke-width="1.5"/>
    <rect x="37" y="33" width="4" height="9" fill="#C9A227" opacity="0.6"/>
    <rect x="43" y="33" width="4" height="9" fill="#C9A227" opacity="0.6"/>
    <!-- Title -->
    <text x="700" y="33"
          text-anchor="end"
          font-family="Noto Nastaliq Urdu, Jameel Noori Nastaleeq, Arial"
          font-size="20"
          font-weight="bold"
          fill="#FFD700"
          direction="rtl"
          unicode-bidi="bidi-override">سرکاری و عوامی امور میں سہولت</text>
    <line x1="75" y1="46" x2="698" y2="46" stroke="#C9A227" stroke-width="0.8" opacity="0.4"/>
    <text x="700" y="68"
          text-anchor="end"
          font-family="Noto Nastaliq Urdu, Jameel Noori Nastaleeq, Arial"
          font-size="14"
          fill="#9ab8d8"
          direction="rtl"
          unicode-bidi="bidi-override">سرکاری و عوامی اداروں سے متعلق معاملات میں مؤثر رابطہ کاری</text>
    <text x="700" y="88"
          text-anchor="end"
          font-family="Noto Nastaliq Urdu, Jameel Noori Nastaleeq, Arial"
          font-size="14"
          fill="#9ab8d8"
          direction="rtl"
          unicode-bidi="bidi-override">اور فالو اپ۔</text>
  </g>

  <!-- ===== SERVICE CARD 3 ===== -->
  <g transform="translate(40, 546)">
    <rect x="0" y="0" width="720" height="100" rx="10" fill="url(#card1Grad)" stroke="#C9A227" stroke-width="0.8" opacity="0.95"/>
    <rect x="0" y="0" width="7" height="100" rx="5" fill="url(#goldGrad)"/>
    <!-- Coin icon -->
    <circle cx="42" cy="33" r="20" fill="none" stroke="#C9A227" stroke-width="1.5" opacity="0.6"/>
    <circle cx="42" cy="33" r="16" fill="#C9A227" opacity="0.12"/>
    <circle cx="42" cy="33" r="10" fill="none" stroke="#C9A227" stroke-width="1.5"/>
    <text x="42" y="38" text-anchor="middle" font-family="Arial" font-size="12" font-weight="bold" fill="#C9A227">₨</text>
    <!-- Title -->
    <text x="700" y="33"
          text-anchor="end"
          font-family="Noto Nastaliq Urdu, Jameel Noori Nastaleeq, Arial"
          font-size="20"
          font-weight="bold"
          fill="#FFD700"
          direction="rtl"
          unicode-bidi="bidi-override">بینکنگ اور مالیاتی معاونت</text>
    <line x1="75" y1="46" x2="698" y2="46" stroke="#C9A227" stroke-width="0.8" opacity="0.4"/>
    <text x="700" y="72"
          text-anchor="end"
          font-family="Noto Nastaliq Urdu, Jameel Noori Nastaleeq, Arial"
          font-size="14"
          fill="#9ab8d8"
          direction="rtl"
          unicode-bidi="bidi-override">بینکنگ اور مالیاتی معاملات میں واضح اور عملی رہنمائی۔</text>
  </g>

  <!-- ===== SERVICE CARD 4 ===== -->
  <g transform="translate(40, 658)">
    <rect x="0" y="0" width="720" height="100" rx="10" fill="url(#card2Grad)" stroke="#C9A227" stroke-width="0.8" opacity="0.95"/>
    <rect x="0" y="0" width="7" height="100" rx="5" fill="url(#goldGrad)"/>
    <!-- Document icon -->
    <circle cx="42" cy="33" r="20" fill="none" stroke="#C9A227" stroke-width="1.5" opacity="0.6"/>
    <circle cx="42" cy="33" r="16" fill="#C9A227" opacity="0.12"/>
    <rect x="34" y="24" width="16" height="20" rx="2" fill="none" stroke="#C9A227" stroke-width="1.3"/>
    <line x1="36" y1="30" x2="48" y2="30" stroke="#C9A227" stroke-width="1"/>
    <line x1="36" y1="34" x2="48" y2="34" stroke="#C9A227" stroke-width="1"/>
    <line x1="36" y1="38" x2="44" y2="38" stroke="#C9A227" stroke-width="1"/>
    <!-- Title -->
    <text x="700" y="33"
          text-anchor="end"
          font-family="Noto Nastaliq Urdu, Jameel Noori Nastaleeq, Arial"
          font-size="20"
          font-weight="bold"
          fill="#FFD700"
          direction="rtl"
          unicode-bidi="bidi-override">دستاویزی رہنمائی اور سپورٹ</text>
    <line x1="75" y1="46" x2="698" y2="46" stroke="#C9A227" stroke-width="0.8" opacity="0.4"/>
    <text x="700" y="72"
          text-anchor="end"
          font-family="Noto Nastaliq Urdu, Jameel Noori Nastaleeq, Arial"
          font-size="14"
          fill="#9ab8d8"
          direction="rtl"
          unicode-bidi="bidi-override">درخواستوں اور ضروری دستاویزات کی تیاری اور ترتیب میں معاونت۔</text>
  </g>

  <!-- ===== SERVICE CARD 5 ===== -->
  <g transform="translate(40, 770)">
    <rect x="0" y="0" width="720" height="108" rx="10" fill="url(#card1Grad)" stroke="#C9A227" stroke-width="0.8" opacity="0.95"/>
    <rect x="0" y="0" width="7" height="108" rx="5" fill="url(#goldGrad)"/>
    <!-- Globe icon -->
    <circle cx="42" cy="35" r="20" fill="none" stroke="#C9A227" stroke-width="1.5" opacity="0.6"/>
    <circle cx="42" cy="35" r="16" fill="#C9A227" opacity="0.12"/>
    <circle cx="42" cy="35" r="10" fill="none" stroke="#C9A227" stroke-width="1.3"/>
    <ellipse cx="42" cy="35" rx="5" ry="10" fill="none" stroke="#C9A227" stroke-width="1"/>
    <line x1="32" y1="35" x2="52" y2="35" stroke="#C9A227" stroke-width="1"/>
    <!-- Title -->
    <text x="700" y="35"
          text-anchor="end"
          font-family="Noto Nastaliq Urdu, Jameel Noori Nastaleeq, Arial"
          font-size="20"
          font-weight="bold"
          fill="#FFD700"
          direction="rtl"
          unicode-bidi="bidi-override">اوورسیز پاکستانیوں کے لیے معاونت</text>
    <line x1="75" y1="48" x2="698" y2="48" stroke="#C9A227" stroke-width="0.8" opacity="0.4"/>
    <text x="700" y="72"
          text-anchor="end"
          font-family="Noto Nastaliq Urdu, Jameel Noori Nastaleeq, Arial"
          font-size="14"
          fill="#9ab8d8"
          direction="rtl"
          unicode-bidi="bidi-override">اوورسیز پاکستانیوں کو پاکستان میں مختلف معاملات میں مکمل رہنمائی</text>
    <text x="700" y="94"
          text-anchor="end"
          font-family="Noto Nastaliq Urdu, Jameel Noori Nastaleeq, Arial"
          font-size="14"
          fill="#9ab8d8"
          direction="rtl"
          unicode-bidi="bidi-override">اور سہولت فراہم کرنا۔</text>
  </g>

  <!-- ===== WAHEED AWAN BADGE ===== -->
  <g filter="url(#badgeShadow)">
    <!-- Outer ring glow -->
    <circle cx="110" cy="940" r="62" fill="#7a5800" opacity="0.5"/>
    <!-- Main circle -->
    <circle cx="110" cy="940" r="58" fill="#0a1a35" stroke="#C9A227" stroke-width="3"/>
    <circle cx="110" cy="940" r="52" fill="none" stroke="#FFD700" stroke-width="1" opacity="0.5"/>
    <!-- Inner gold ring -->
    <circle cx="110" cy="940" r="48" fill="#071528"/>
    <!-- Top arc text: ایڈووکیٹ -->
    <text x="110" y="910"
          text-anchor="middle"
          font-family="Noto Nastaliq Urdu, Arial"
          font-size="11"
          fill="#C9A227"
          direction="rtl">ایڈووکیٹ</text>
    <!-- Name -->
    <text x="110" y="937"
          text-anchor="middle"
          font-family="Noto Nastaliq Urdu, Jameel Noori Nastaleeq, Arial"
          font-size="18"
          font-weight="bold"
          fill="#FFD700"
          filter="url(#softGlow)"
          direction="rtl"
          unicode-bidi="bidi-override">وحید</text>
    <text x="110" y="960"
          text-anchor="middle"
          font-family="Noto Nastaliq Urdu, Jameel Noori Nastaleeq, Arial"
          font-size="18"
          font-weight="bold"
          fill="#FFD700"
          filter="url(#softGlow)"
          direction="rtl"
          unicode-bidi="bidi-override">اعوان</text>
    <!-- Bottom small text -->
    <text x="110" y="978"
          text-anchor="middle"
          font-family="Noto Nastaliq Urdu, Arial"
          font-size="9.5"
          fill="#C9A227"
          direction="rtl">پبلک سلوشنز ڈیسک</text>
  </g>

  <!-- Vision text on the right side of badge -->
  <text x="680" y="928"
        text-anchor="end"
        font-family="Noto Nastaliq Urdu, Arial"
        font-size="15"
        font-weight="bold"
        fill="#FFD700"
        direction="rtl"
        unicode-bidi="bidi-override">ہمارا وژن</text>
  <line x1="210" y1="935" x2="678" y2="935" stroke="#C9A227" stroke-width="0.8" opacity="0.4"/>
  <text x="680" y="956"
        text-anchor="end"
        font-family="Noto Nastaliq Urdu, Arial"
        font-size="13"
        fill="#9ab8d8"
        direction="rtl"
        unicode-bidi="bidi-override">آپ کے مسائل کا مؤثر حل اور ادارہ جاتی</text>
  <text x="680" y="976"
        text-anchor="end"
        font-family="Noto Nastaliq Urdu, Arial"
        font-size="13"
        fill="#9ab8d8"
        direction="rtl"
        unicode-bidi="bidi-override">رابطہ کاری کو آسان بنانا۔</text>

  <!-- Divider before footer -->
  <line x1="0" y1="1006" x2="800" y2="1006" stroke="#C9A227" stroke-width="1.5" opacity="0.5"/>
  <line x1="0" y1="1008.5" x2="800" y2="1008.5" stroke="#C9A227" stroke-width="0.5" opacity="0.25"/>

  <!-- ===== FOOTER ===== -->
  <rect x="0" y="1011" width="800" height="139" fill="url(#footerGrad)"/>
  <rect x="0" y="1011" width="800" height="5" fill="#7a5800" opacity="0.5"/>

  <!-- Footer top highlight -->
  <rect x="0" y="1016" width="800" height="16" fill="#FFD700" opacity="0.12"/>

  <!-- Vertical divider in footer -->
  <line x1="400" y1="1022" x2="400" y2="1130" stroke="#071528" stroke-width="2" opacity="0.35"/>

  <!-- Footer left side -->
  <text x="595" y="1060"
        text-anchor="middle"
        font-family="Noto Nastaliq Urdu, Jameel Noori Nastaleeq, Arial"
        font-size="17"
        font-weight="bold"
        fill="#071528"
        direction="rtl"
        unicode-bidi="bidi-override">مسائل اور مؤثر رابطہ کاری</text>
  <line x1="420" y1="1070" x2="775" y2="1070" stroke="#071528" stroke-width="1" opacity="0.3"/>
  <text x="595" y="1092"
        text-anchor="middle"
        font-family="Noto Nastaliq Urdu, Arial"
        font-size="13"
        fill="#1a2a10"
        direction="rtl"
        unicode-bidi="bidi-override">مسائل کے حل کے لیے مؤثر فالو اپ</text>
  <text x="595" y="1112"
        text-anchor="middle"
        font-family="Noto Nastaliq Urdu, Arial"
        font-size="13"
        fill="#1a2a10"
        direction="rtl"
        unicode-bidi="bidi-override">اور ادارہ جاتی رابطہ کاری۔</text>

  <!-- Footer right side -->
  <text x="200" y="1055"
        text-anchor="middle"
        font-family="Noto Nastaliq Urdu, Arial"
        font-size="13"
        fill="#071528"
        direction="rtl"
        unicode-bidi="bidi-override">اعوان لاء ایسوسی ایٹس</text>
  <text x="200" y="1078"
        text-anchor="middle"
        font-family="Noto Nastaliq Urdu, Arial"
        font-size="13"
        font-weight="bold"
        fill="#071528"
        direction="rtl"
        unicode-bidi="bidi-override">پروفیشنل قانونی خدمات</text>
  <!-- Small star decoration -->
  <polygon points="200,1090 203,1098 212,1098 205,1103 207,1112 200,1107 193,1112 195,1103 188,1098 197,1098" fill="#071528" opacity="0.5"/>

  <!-- Bottom border -->
  <rect x="0" y="1143" width="800" height="7" fill="#7a5800"/>
</svg>
